<?xml version="1.0" encoding="UTF-8" standalone="no"?>
<!DOCTYPE svg PUBLIC "-//W3C//DTD SVG 1.1//EN"
 "http://www.w3.org/Graphics/SVG/1.1/DTD/svg11.dtd">
<!-- Generated by graphviz version 2.50.0 (20211204.2007)
 -->
<!-- Title: test1 Pages: 1 -->
<svg width="138pt" height="66pt"
 viewBox="0.00 0.00 138.00 66.00" xmlns="http://www.w3.org/2000/svg" xmlns:xlink="http://www.w3.org/1999/xlink">
<g id="graph0" class="graph" transform="scale(1 1) rotate(0) translate(4 62)">
<title>test1</title>
<polygon fill="white" stroke="transparent" points="-4,4 -4,-62 134,-62 134,4 -4,4"/>
<!-- Node1 -->
<g id="node1" class="node">
<title>Node1</title>
<g id="a_node1"><a xlink:title="Tests to make sure that all functions work to create a linked list and find the middle element (odd)">
<polygon fill="#bfbfbf" stroke="black" points="0,-19.5 0,-38.5 38,-38.5 38,-19.5 0,-19.5"/>
<text text-anchor="middle" x="19" y="-26.5" font-family="Helvetica,sans-Serif" font-size="10.00">test1</text>
</a>
</g>
</g>
<!-- Node2 -->
<g id="node2" class="node">
<title>Node2</title>
<g id="a_node2"><a xlink:href="../../dc/ddf/linked__list__find__middle_8cpp.html#a17d2ee932761e3dd5c08fa3f7fc5ffe4" target="_top" xlink:title="Create linked list and add nodes.">
<polygon fill="white" stroke="black" points="74,-38.5 74,-57.5 130,-57.5 130,-38.5 74,-38.5"/>
<text text-anchor="middle" x="102" y="-45.5" font-family="Helvetica,sans-Serif" font-size="10.00">addNode</text>
</a>
</g>
</g>
<!-- Node1&#45;&gt;Node2 -->
<g id="edge1" class="edge">
<title>Node1&#45;&gt;Node2</title>
<path fill="none" stroke="midnightblue" d="M38.38,-33.31C45.98,-35.09 55.07,-37.23 63.94,-39.31"/>
<polygon fill="midnightblue" stroke="midnightblue" points="63.24,-42.74 73.77,-41.61 64.84,-35.92 63.24,-42.74"/>
</g>
<!-- Node3 -->
<g id="node3" class="node">
<title>Node3</title>
<g id="a_node3"><a xlink:href="../../dc/ddf/linked__list__find__middle_8cpp.html#a92f039f762bb08273221b1879e5b9b95" target="_top" xlink:title="Tortoise and Hare algorithm utilizing a fast and slow pointer.">
<polygon fill="white" stroke="black" points="74.5,-0.5 74.5,-19.5 129.5,-19.5 129.5,-0.5 74.5,-0.5"/>
<text text-anchor="middle" x="102" y="-7.5" font-family="Helvetica,sans-Serif" font-size="10.00">midPoint</text>
</a>
</g>
</g>
<!-- Node1&#45;&gt;Node3 -->
<g id="edge2" class="edge">
<title>Node1&#45;&gt;Node3</title>
<path fill="none" stroke="midnightblue" d="M38.38,-24.69C46.11,-22.87 55.4,-20.7 64.42,-18.58"/>
<polygon fill="midnightblue" stroke="midnightblue" points="65.46,-21.93 74.4,-16.24 63.86,-15.12 65.46,-21.93"/>
</g>
</g>
</svg>
