<?xml version="1.0" encoding="UTF-8" standalone="no"?>
<!DOCTYPE svg PUBLIC "-//W3C//DTD SVG 1.1//EN"
 "http://www.w3.org/Graphics/SVG/1.1/DTD/svg11.dtd">
<!-- Generated by graphviz version 2.50.0 (20211204.2007)
 -->
<!-- Title: main Pages: 1 -->
<svg width="212pt" height="66pt"
 viewBox="0.00 0.00 212.00 66.00" xmlns="http://www.w3.org/2000/svg" xmlns:xlink="http://www.w3.org/1999/xlink">
<g id="graph0" class="graph" transform="scale(1 1) rotate(0) translate(4 62)">
<title>main</title>
<polygon fill="white" stroke="transparent" points="-4,4 -4,-62 208,-62 208,4 -4,4"/>
<!-- Node1 -->
<g id="node1" class="node">
<title>Node1</title>
<g id="a_node1"><a xlink:title="Main function gathers user input to create a linked list, returning middle element.">
<polygon fill="#bfbfbf" stroke="black" points="0,-19.5 0,-38.5 38,-38.5 38,-19.5 0,-19.5"/>
<text text-anchor="middle" x="19" y="-26.5" font-family="Helvetica,sans-Serif" font-size="10.00">main</text>
</a>
</g>
</g>
<!-- Node2 -->
<g id="node2" class="node">
<title>Node2</title>
<g id="a_node2"><a xlink:href="../../dc/ddf/linked__list__find__middle_8cpp.html#ae7880ce913f3058a35ff106d5be9e243" target="_top" xlink:title="Tests to make sure that all functions work to create a linked list and find the middle element (odd)">
<polygon fill="white" stroke="black" points="74,-38.5 74,-57.5 112,-57.5 112,-38.5 74,-38.5"/>
<text text-anchor="middle" x="93" y="-45.5" font-family="Helvetica,sans-Serif" font-size="10.00">test1</text>
</a>
</g>
</g>
<!-- Node1&#45;&gt;Node2 -->
<g id="edge1" class="edge">
<title>Node1&#45;&gt;Node2</title>
<path fill="none" stroke="midnightblue" d="M38.17,-33.79C45.95,-35.85 55.23,-38.3 63.87,-40.58"/>
<polygon fill="midnightblue" stroke="midnightblue" points="63.02,-43.97 73.59,-43.14 64.81,-37.21 63.02,-43.97"/>
</g>
<!-- Node5 -->
<g id="node5" class="node">
<title>Node5</title>
<g id="a_node5"><a xlink:href="../../dc/ddf/linked__list__find__middle_8cpp.html#a45d94ead4cf4e1ff9f87c38bc99f59ae" target="_top" xlink:title="Tests to make sure that all functions work to create a linked list and find the middle element (even)">
<polygon fill="white" stroke="black" points="74,-0.5 74,-19.5 112,-19.5 112,-0.5 74,-0.5"/>
<text text-anchor="middle" x="93" y="-7.5" font-family="Helvetica,sans-Serif" font-size="10.00">test2</text>
</a>
</g>
</g>
<!-- Node1&#45;&gt;Node5 -->
<g id="edge4" class="edge">
<title>Node1&#45;&gt;Node5</title>
<path fill="none" stroke="midnightblue" d="M38.17,-24.21C45.95,-22.15 55.23,-19.7 63.87,-17.42"/>
<polygon fill="midnightblue" stroke="midnightblue" points="64.81,-20.79 73.59,-14.86 63.02,-14.03 64.81,-20.79"/>
</g>
<!-- Node3 -->
<g id="node3" class="node">
<title>Node3</title>
<g id="a_node3"><a xlink:href="../../dc/ddf/linked__list__find__middle_8cpp.html#a17d2ee932761e3dd5c08fa3f7fc5ffe4" target="_top" xlink:title="Create linked list and add nodes.">
<polygon fill="white" stroke="black" points="148,-38.5 148,-57.5 204,-57.5 204,-38.5 148,-38.5"/>
<text text-anchor="middle" x="176" y="-45.5" font-family="Helvetica,sans-Serif" font-size="10.00">addNode</text>
</a>
</g>
</g>
<!-- Node2&#45;&gt;Node3 -->
<g id="edge2" class="edge">
<title>Node2&#45;&gt;Node3</title>
<path fill="none" stroke="midnightblue" d="M112.38,-48C119.9,-48 128.88,-48 137.66,-48"/>
<polygon fill="midnightblue" stroke="midnightblue" points="137.77,-51.5 147.77,-48 137.77,-44.5 137.77,-51.5"/>
</g>
<!-- Node4 -->
<g id="node4" class="node">
<title>Node4</title>
<g id="a_node4"><a xlink:href="../../dc/ddf/linked__list__find__middle_8cpp.html#a92f039f762bb08273221b1879e5b9b95" target="_top" xlink:title="Tortoise and Hare algorithm utilizing a fast and slow pointer.">
<polygon fill="white" stroke="black" points="148.5,-0.5 148.5,-19.5 203.5,-19.5 203.5,-0.5 148.5,-0.5"/>
<text text-anchor="middle" x="176" y="-7.5" font-family="Helvetica,sans-Serif" font-size="10.00">midPoint</text>
</a>
</g>
</g>
<!-- Node2&#45;&gt;Node4 -->
<g id="edge3" class="edge">
<title>Node2&#45;&gt;Node4</title>
<path fill="none" stroke="midnightblue" d="M112.38,-39.38C122.13,-34.8 134.34,-29.07 145.39,-23.89"/>
<polygon fill="midnightblue" stroke="midnightblue" points="147.14,-26.94 154.7,-19.52 144.16,-20.6 147.14,-26.94"/>
</g>
<!-- Node5&#45;&gt;Node3 -->
<g id="edge5" class="edge">
<title>Node5&#45;&gt;Node3</title>
<path fill="none" stroke="midnightblue" d="M112.38,-18.62C122.13,-23.2 134.34,-28.93 145.39,-34.11"/>
<polygon fill="midnightblue" stroke="midnightblue" points="144.16,-37.4 154.7,-38.48 147.14,-31.06 144.16,-37.4"/>
</g>
<!-- Node5&#45;&gt;Node4 -->
<g id="edge6" class="edge">
<title>Node5&#45;&gt;Node4</title>
<path fill="none" stroke="midnightblue" d="M112.38,-10C120.03,-10 129.2,-10 138.13,-10"/>
<polygon fill="midnightblue" stroke="midnightblue" points="138.4,-13.5 148.4,-10 138.4,-6.5 138.4,-13.5"/>
</g>
</g>
</svg>
